<svg width="20" height="16" viewBox="0 0 20 16" fill="none" xmlns="http://www.w3.org/2000/svg">
<path d="M17.01 0H3.01001C2.21436 0 1.4513 0.316071 0.88869 0.87868C0.32608 1.44129 0.0100098 2.20435 0.0100098 3V13C0.0100098 13.7956 0.32608 14.5587 0.88869 15.1213C1.4513 15.6839 2.21436 16 3.01001 16H17.01C17.8057 16 18.5687 15.6839 19.1313 15.1213C19.6939 14.5587 20.01 13.7956 20.01 13V3C20.01 2.20435 19.6939 1.44129 19.1313 0.87868C18.5687 0.316071 17.8057 0 17.01 0ZM17.01 2L10.51 6.47C10.358 6.55777 10.1855 6.60397 10.01 6.60397C9.83447 6.60397 9.66203 6.55777 9.51001 6.47L3.01001 2H17.01Z" fill="currentColor"/>
</svg>
