<svg width="20" height="20" viewBox="0 0 20 20" fill="none" xmlns="http://www.w3.org/2000/svg">
<path d="M13.5075 14.1091L15.1875 12.4291C15.4138 12.2056 15.7 12.0526 16.0116 11.9887C16.3231 11.9248 16.6465 11.9527 16.9425 12.0691L18.99 12.8866C19.2891 13.008 19.5456 13.2152 19.7271 13.4821C19.9086 13.7491 20.007 14.0638 20.01 14.3866V18.1366C20.0082 18.3561 19.9621 18.5731 19.8743 18.7744C19.7865 18.9756 19.6589 19.1571 19.4991 19.3077C19.3393 19.4584 19.1507 19.5751 18.9447 19.651C18.7386 19.7268 18.5193 19.7602 18.3 19.7491C3.95249 18.8566 1.05749 6.70655 0.509988 2.05655C0.484573 1.82821 0.507794 1.59707 0.578124 1.37834C0.648454 1.15961 0.764299 0.958248 0.918038 0.787506C1.07178 0.616764 1.25993 0.480508 1.47011 0.387702C1.68029 0.294896 1.90773 0.247644 2.13749 0.249054H5.75999C6.08324 0.250011 6.39882 0.347655 6.66613 0.529426C6.93344 0.711198 7.14026 0.968784 7.25999 1.26905L8.07749 3.31655C8.19768 3.61136 8.22834 3.93504 8.16565 4.24716C8.10296 4.55929 7.94969 4.84603 7.72499 5.07155L6.04499 6.75155C6.04499 6.75155 7.01249 13.2991 13.5075 14.1091Z" fill="currentColor"/>
</svg>
